<?xml version="1.0" encoding="UTF-8"?>
<svg id="Capa_2" data-name="Capa 2" xmlns="http://www.w3.org/2000/svg" viewBox="0 0 274.6 229.74">
  <defs>
    <style>
      .cls-1 {
        fill: #fff;
      }

      .cls-2 {
        fill: #2b8fff;
      }

      .cls-3 {
        fill: none;
        stroke: #000;
        stroke-linecap: round;
        stroke-miterlimit: 10;
        stroke-width: 4.99px;
      }
    </style>
  </defs>
  <g id="Capa_1-2" data-name="Capa 1">
    <g>
      <path class="cls-2" d="M195.53,47.45c.02-.47.07-.94.07-1.41,0-20.97-16.5-37.97-36.85-37.97-14.97,0-27.82,9.21-33.59,22.41-6.75-2.25-13.95-3.48-21.43-3.48-38.44,0-69.6,32.1-69.6,71.71s31.16,71.71,69.6,71.71c9.16,0,17.9-1.84,25.91-5.16,12.75,14.83,31.36,24.19,52.11,24.19,38.44,0,69.6-32.1,69.6-71.71,0-34.74-23.98-63.7-55.81-70.29Z"/>
      <g>
        <path class="cls-2" d="M76.48,197.85l-8,11.31c-2.61,3.68-2.1,8.87.14,12.63,1.52,2.56,6.09,6.2,9.74,6.19l29-.1c7.06-.02,13.39-6.11,13.42-13.1l.13-48.05-44.53-12.29.11,43.42Z"/>
        <path class="cls-2" d="M142.74,217.68c-.01,6.85,7.02,12.13,13.33,12.06l26.35-.28c3.96-.04,7.84-4.32,8.9-7.11,1.32-3.48.33-8.66-1.87-11.46l-6.46-8.23.09-32.45-40.3,5.61-.04,41.86Z"/>
        <path class="cls-2" d="M240.42,101.77c-45.31,5.69-17.18,51.6-17.18,51.6,4.9,14.23,8.95,28.08,8.97,42.61.01,7.69,1.45,13.67,10.09,16.19,8.44,2.45,19,3.37,26.54-2.82,4.71-3.87,6.22-11.39,5.62-17.53-2.98-30.54-13.97-66.56-34.05-90.04Z"/>
        <path class="cls-2" d="M67.86,63.62c-10.01-15.3-19.41-30.83-24.41-48.57-1.51-5.37-1.19-11.4-8.03-13.53C25.35-1.63,12.4-.03,4.36,7.72-.63,12.54-.8,20.66,1.19,27.16c5.77,18.85,14.82,35.74,25.5,52.34,7.82,12.16,17.76,22.02,28.47,31.35,39.42-13.21,12.71-47.23,12.71-47.23Z"/>
      </g>
      <g>
        <path d="M128.08,103.41c-3.42,4.32-8.46,5.46-12.77,5.21-5.33-.32-9.85-2.91-12.21-7.87-5.75-12.05-3.44-27.5,5.59-37.11,5.73-6.1,14.07-6.88,20.17-1.78,5.55,4.63,7.87,12.03,6.87,18.98l2.5,1.15c.96.44,2.06,1.98,1.76,3.07-.8,2.83-9.68-.89-11.35,7.29-.74,3.64,1.61,7.46,5.82,8.56,1.25.33,2.18,1.8,1.89,3.06-.21.92-2.3,1.86-3.27,1.47l-5-2.02ZM125.28,99.21c-3.23-6.22-1-13.15,5.38-16.11,2.68-9.02-2.57-19.53-10.24-20.05-10.19-.68-20.52,18.51-13.48,34.89,1.94,4.51,6.06,6.76,10.95,6.01,3.23-.5,5.95-2.05,7.39-4.74Z"/>
        <path d="M149.73,102.8c-3.8-9.8-1.8-21.6,4.88-29.85,3.97-4.9,10.21-7.56,16.33-6.54,15.41,2.56,18.16,24,10.34,38.88-3.31,6.3-9.99,10.98-17.53,10.03-7.14-.9-11.61-6.31-14.01-12.52ZM174.28,106.98c6.79-6.86,8.98-22.75,3.42-30.98-3.48-5.15-9.36-6.63-14.94-3.76-9.92,5.1-14.34,23.97-5.34,34.59,4.69,5.53,12,5.07,16.86.15Z"/>
        <path d="M125.89,130.66c3.71,7.11,11.48,9.83,18.39,8.17,7.36-1.77,12.03-8.73,12.41-16.24l6.75-.11c.86-.01,2.2-2.05,1.88-2.81-1.84-4.29-11.36,1.8-14.75-6.31-.37-.88-1.6-1.87-2.37-1.79s-2.14,1.86-2.06,2.69c.26,2.79,3.31,5.17,5.1,6.99,2.11,4.84-2.35,10.81-6.47,12.51-5.47,2.25-11.28-.04-14.52-4.68-.41-.59-1.95-1.33-2.65-1.42-.84-.11-2.15,2.18-1.72,3.01Z"/>
        <path class="cls-1" d="M106.94,97.94c-7.04-16.38,3.28-35.57,13.48-34.89,7.67.51,12.92,11.03,10.24,20.05-6.38,2.96-8.61,9.89-5.38,16.11-1.44,2.69-4.15,4.24-7.39,4.74-4.9.76-9.01-1.5-10.95-6.01ZM125.32,82.8c.06-.66-.79-1.86-1.38-2.15-.71-.35-2.18.26-3.07.79-4.61,2.77-6.73-4.51-8.96-4.79-.67-.09-2,.64-2.29,1.25-.34.73.09,2.55.56,3.25,3.09,4.61,7.98,7.43,13.32,4.25.61-.36,1.74-1.93,1.81-2.59Z"/>
        <path class="cls-1" d="M162.76,72.24c5.58-2.87,11.46-1.39,14.94,3.76,5.56,8.23,3.37,24.12-3.42,30.98-4.87,4.92-12.17,5.38-16.86-.15-9.01-10.62-4.58-29.49,5.34-34.59ZM160.98,85.02c-.69-.24-2.36,1.04-2.4,1.99-.16,3.57,2.81,7.16,6.24,8.14,3.66,1.05,8.04-.53,10.04-3.91.48-.82-.13-2.94-.9-3.23-2.74-1.03-4.11,3.51-7.26,2.87-3.89-.78-2.69-4.81-5.72-5.86Z"/>
        <path d="M123.52,85.39c.61-.36,1.74-1.93,1.81-2.59s-.79-1.86-1.38-2.15c-.71-.35-2.18.26-3.07.79-4.61,2.77-6.73-4.51-8.96-4.79-.67-.09-2,.64-2.29,1.25-.34.73.09,2.55.56,3.25,3.09,4.61,7.98,7.43,13.32,4.25Z"/>
        <path d="M166.7,90.88c-3.89-.78-2.69-4.81-5.72-5.86-.69-.24-2.36,1.04-2.4,1.99-.16,3.57,2.81,7.16,6.24,8.14,3.66,1.05,8.04-.53,10.04-3.91.48-.82-.13-2.94-.9-3.23-2.74-1.03-4.11,3.51-7.26,2.87Z"/>
      </g>
      <line class="cls-3" x1="183.5" y1="92.62" x2="230.12" y2="66.19"/>
      <line class="cls-3" x1="104.63" y1="74.78" x2="75.82" y2="31.82"/>
    </g>
  </g>
</svg>